<svg xmlns="http://www.w3.org/2000/svg" width="52" height="52" viewBox="0 0 52 52"><g><g opacity=".5"><path fill="#f5c506" d="M.414 13.5l12.219-.464L12.551.808l5.217 4.99.082 12.227-12.219.464zm7.918 7.572l12.219-.464-.082-12.228 5.217 4.99.082 12.227-12.219.464zm25.9 24.767l-.083-12.227 12.22-.464 5.217 4.989-12.22.464.083 12.227zm-7.918-7.572L26.23 26.04l12.22-.464 5.217 4.989-12.22.464.083 12.227zM38.318.233l.464 12.218 12.228-.082-4.99 5.217-12.227.083-.464-12.22zM30.747 8.15l.463 12.22 12.228-.083-4.989 5.217-12.228.083-.464-12.22zM5.979 34.05l12.228-.083.464 12.22-4.99 5.217-.464-12.22-12.227.083zm7.572-7.918l12.227-.083.464 12.22-4.989 5.217-.464-12.22-12.227.083z"/></g></g></svg>